# ProBuilder 4.2.3
# https://unity3d.com/unity/features/worldbuilding/probuilder
# 17.02.2021 11:16:04

mtllib ./28Arch35.mtl
o 28Arch35

g 28Arch35
v -2.8 0 0
v -2.794777 -1.490116E-08 -0.1709359
v -2.8 0.2 -2.980232E-08
v -2.794777 0.2 -0.170936
v -2.495337 -1.490116E-08 -0.1526214
v -2.5 0 0
v -2.495337 0.2 -0.1526214
v -2.5 0.2 -2.980232E-08
v -2.779129 -2.980232E-08 -0.3412342
v -2.779129 0.2 -0.3412343
v -2.481365 -2.980232E-08 -0.3046734
v -2.481365 0.2 -0.3046734
v -2.753114 -5.960464E-08 -0.5102595
v -2.753114 0.2 -0.5102596
v -2.458137 -5.960464E-08 -0.4555889
v -2.458137 0.2 -0.4555889
v -2.716828 -5.960464E-08 -0.6773814
v -2.716828 0.2 -0.6773815
v -2.425739 -5.960464E-08 -0.6048048
v -2.425739 0.2 -0.6048049
v -2.670407 -1.192093E-07 -0.8419763
v -2.670407 0.1999999 -0.8419763
v -2.384292 -1.192093E-07 -0.7517646
v -2.384292 0.1999999 -0.7517647
v -2.614025 -1.192093E-07 -1.00343
v -2.614025 0.1999999 -1.00343
v -2.333951 -1.192093E-07 -0.89592
v -2.333951 0.1999999 -0.89592
v -2.547892 -1.192093E-07 -1.161141
v -2.547892 0.1999999 -1.161141
v -2.274903 -1.192093E-07 -1.036733
v -2.274903 0.1999999 -1.036733
v -2.472253 -1.192093E-07 -1.31452
v -2.472253 0.1999999 -1.31452
v -2.207369 -1.192093E-07 -1.173679
v -2.207369 0.1999999 -1.173679
v -2.387392 -1.192093E-07 -1.462996
v -2.387392 0.1999999 -1.462996
v -2.1316 -1.192093E-07 -1.306247
v -2.1316 0.1999999 -1.306247
v -2.293626 -2.384186E-07 -1.606014
v -2.293626 0.1999998 -1.606014
v -2.04788 -1.192093E-07 -1.433941
v -2.04788 0.1999999 -1.433941

vt 0 0
vt 0 0.1710157
vt 0.2 0
vt 0.2 0.1710157
vt 0 0.1618541
vt 0 0.009161525
vt -0.2 0.1618541
vt -0.2 0.009161525
vt 0 0.2
vt 0.3 0.2
vt 0.3 0
vt 0 0.1706967
vt 0 0.3417124
vt 0.2 0.1706967
vt 0.2 0.3417124
vt 0 0.3325507
vt 0 0.1798582
vt -0.2 0.3325507
vt -0.2 0.1798582
vt 0 0.3404376
vt 0 0.5114533
vt 0.2 0.3404376
vt 0.2 0.5114533
vt 0 0.5022919
vt 0 0.3495993
vt -0.2 0.5022919
vt -0.2 0.3495993
vt 0 0.5085896
vt 0 0.6796054
vt 0.2 0.5085896
vt 0.2 0.6796054
vt 0 0.6704438
vt 0 0.5177512
vt -0.2 0.6704438
vt -0.2 0.5177512
vt 0 0.6745253
vt 0 0.845541
vt 0.2 0.6745253
vt 0.2 0.845541
vt 0 0.8363795
vt 0 0.683687
vt -0.2 0.8363795
vt -0.2 0.683687
vt 0 0.837626
vt 0 1.008642
vt 0.2 0.837626
vt 0.2 1.008642
vt 0 0.9994801
vt 0 0.8467875
vt -0.2 0.9994801
vt -0.2 0.8467875
vt 0 0.997283
vt 0 1.168299
vt 0.2 0.997283
vt 0.2 1.168299
vt 0 1.159137
vt 0 1.006444
vt -0.2 1.159137
vt -0.2 1.006444
vt 0 1.1529
vt 0 1.323916
vt 0.2 1.1529
vt 0.2 1.323916
vt 0 1.314755
vt 0 1.162062
vt -0.2 1.314755
vt -0.2 1.162062
vt 0 1.303898
vt 0 1.474914
vt 0.2 1.303898
vt 0.2 1.474914
vt 0 1.465752
vt 0 1.31306
vt -0.2 1.465752
vt -0.2 1.31306
vt 0 1.449714
vt 0 1.62073
vt 0.2 1.449714
vt 0.2 1.62073
vt 0 1.611567
vt 0 1.458875
vt -0.2 1.611567
vt -0.2 1.458875
vt 0.206374 0.2
vt 0.5063741 0.2
vt 0.206374 0
vt 0.5063741 0
vt 0.005222559 0.1709359
vt 0.3046629 0.1526214
vt -0.005222559 0.1709359
vt -0.3046629 0.1526214
vt -0.3 0
vt 0.02087069 0.3412342
vt 0.3186345 0.3046734
vt -0.02087069 0.3412342
vt -0.3186345 0.3046734
vt 0.04688621 0.5102594
vt 0.3418627 0.4555888
vt -0.04688621 0.5102594
vt -0.3418627 0.4555888
vt 0.08317184 0.6773813
vt 0.3742607 0.6048048
vt -0.08317184 0.6773813
vt -0.3742607 0.6048048
vt 0.1295927 0.8419762
vt 0.4157076 0.7517645
vt -0.1295927 0.8419762
vt -0.4157076 0.7517645
vt 0.1859748 1.00343
vt 0.466049 0.8959199
vt -0.1859748 1.00343
vt -0.466049 0.8959199
vt 0.2521083 1.161141
vt 0.5250967 1.036733
vt -0.2521083 1.161141
vt -0.5250967 1.036733
vt 0.3277469 1.31452
vt 0.5926311 1.173679
vt -0.3277469 1.31452
vt -0.5926311 1.173679
vt 0.4126077 1.462996
vt 0.6683996 1.306246
vt -0.4126077 1.462996
vt -0.6683996 1.306246
vt 0.5063741 1.606014
vt 0.7521198 1.433941
vt -0.5063741 1.606014
vt -0.7521198 1.433941

vn -0.9995336 -4.550587E-09 -0.03053848
vn 0.9995336 4.550579E-09 0.03053842
vn 0 1.490116E-07 1
vn -0.995805 -2.045209E-08 -0.09150112
vn 0.995805 1.363475E-08 0.09150128
vn -0.9883615 -4.533636E-08 -0.1521236
vn 0.9883615 4.53364E-08 0.1521238
vn -0.9772312 -6.323373E-08 -0.2121772
vn 0.9772311 6.323391E-08 0.2121779
vn -0.9624549 -8.089592E-08 -0.2714417
vn 0.9624553 8.08955E-08 0.2714403
vn -0.9440892 0 -0.3296902
vn 0.9440889 0 0.329691
vn -0.9222013 0 -0.3867103
vn 0.9222015 0 0.3867097
vn -0.8968722 0 -0.4422897
vn 0.896872 0 0.4422902
vn -0.8681987 0 -0.4962167
vn 0.8681991 0 0.4962159
vn -0.8362873 0 -0.5482915
vn 0.8362865 0 0.5482927
vn 0.5735765 0 -0.819152
vn 0 1 -8.717395E-08
vn -5.321842E-09 -1 8.701136E-08

usemtl Obstacle
f 3/3/1 4/4/1 2/2/1 1/1/1
f 7/7/2 8/8/2 6/6/2 5/5/2
f 1/1/3 6/11/3 8/10/3 3/9/3
f 4/14/4 10/15/4 9/13/4 2/12/4
f 12/18/5 7/19/5 5/17/5 11/16/5
f 10/22/6 14/23/6 13/21/6 9/20/6
f 16/26/7 12/27/7 11/25/7 15/24/7
f 14/30/8 18/31/8 17/29/8 13/28/8
f 20/34/9 16/35/9 15/33/9 19/32/9
f 18/38/10 22/39/10 21/37/10 17/36/10
f 24/42/11 20/43/11 19/41/11 23/40/11
f 22/46/12 26/47/12 25/45/12 21/44/12
f 28/50/13 24/51/13 23/49/13 27/48/13
f 26/54/14 30/55/14 29/53/14 25/52/14
f 32/58/15 28/59/15 27/57/15 31/56/15
f 30/62/16 34/63/16 33/61/16 29/60/16
f 36/66/17 32/67/17 31/65/17 35/64/17
f 34/70/18 38/71/18 37/69/18 33/68/18
f 40/74/19 36/75/19 35/73/19 39/72/19
f 38/78/20 42/79/20 41/77/20 37/76/20
f 44/82/21 40/83/21 39/81/21 43/80/21
f 43/86/22 41/87/22 42/85/22 44/84/22
f 8/11/23 7/89/23 4/88/23 3/1/23
f 5/91/24 6/92/24 1/1/24 2/90/24
f 7/89/23 12/94/23 10/93/23 4/88/23
f 11/96/24 5/91/24 2/90/24 9/95/24
f 12/94/23 16/98/23 14/97/23 10/93/23
f 15/100/24 11/96/24 9/95/24 13/99/24
f 16/98/23 20/102/23 18/101/23 14/97/23
f 19/104/24 15/100/24 13/99/24 17/103/24
f 20/102/23 24/106/23 22/105/23 18/101/23
f 23/108/24 19/104/24 17/103/24 21/107/24
f 24/106/23 28/110/23 26/109/23 22/105/23
f 27/112/24 23/108/24 21/107/24 25/111/24
f 28/110/23 32/114/23 30/113/23 26/109/23
f 31/116/24 27/112/24 25/111/24 29/115/24
f 32/114/23 36/118/23 34/117/23 30/113/23
f 35/120/24 31/116/24 29/115/24 33/119/24
f 36/118/23 40/122/23 38/121/23 34/117/23
f 39/124/24 35/120/24 33/119/24 37/123/24
f 40/122/23 44/126/23 42/125/23 38/121/23
f 43/128/24 39/124/24 37/123/24 41/127/24

