# ProBuilder 4.2.3
# https://unity3d.com/unity/features/worldbuilding/probuilder
# 17.02.2021 11:16:04

mtllib ./28Arch90.mtl
o 28Arch90

g 28Arch90
v -2.8 0 0
v -2.791368 -2.980232E-08 -0.2196855
v -2.8 0.2 -2.980232E-08
v -2.791368 0.2 -0.2196855
v -2.492293 -2.980232E-08 -0.1961478
v -2.5 0 0
v -2.492293 0.2 -0.1961478
v -2.5 0.2 -2.980232E-08
v -2.765527 -5.960464E-08 -0.4380166
v -2.765527 0.2 -0.4380167
v -2.469221 -5.960464E-08 -0.3910863
v -2.469221 0.2 -0.3910863
v -2.722636 -5.960464E-08 -0.6536471
v -2.722636 0.2 -0.6536471
v -2.430925 -5.960464E-08 -0.5836135
v -2.430925 0.2 -0.5836135
v -2.662958 -1.192093E-07 -0.8652477
v -2.662958 0.1999999 -0.8652478
v -2.377641 -1.192093E-07 -0.7725426
v -2.377641 0.1999999 -0.7725427
v -2.586863 -1.192093E-07 -1.071514
v -2.586863 0.1999999 -1.071514
v -2.309699 -1.192093E-07 -0.9567088
v -2.309699 0.1999999 -0.9567088
v -2.494818 -1.192093E-07 -1.271173
v -2.494818 0.1999999 -1.271173
v -2.227516 -1.192093E-07 -1.134976
v -2.227516 0.1999999 -1.134976
v -2.387392 -1.192093E-07 -1.462996
v -2.387392 0.1999999 -1.462996
v -2.1316 -1.192093E-07 -1.306247
v -2.1316 0.1999999 -1.306247
v -2.265248 -2.384186E-07 -1.645799
v -2.265248 0.1999998 -1.645799
v -2.022542 -1.192093E-07 -1.469463
v -2.022542 0.1999999 -1.469463
v -2.129137 -2.384186E-07 -1.818455
v -2.129137 0.1999998 -1.818455
v -1.901015 -2.384186E-07 -1.62362
v -1.901015 0.1999998 -1.62362
v -1.979899 -2.384186E-07 -1.979899
v -1.979899 0.1999998 -1.979899
v -1.767767 -2.384186E-07 -1.767767
v -1.767767 0.1999998 -1.767767
v -1.818455 -2.384186E-07 -2.129137
v -1.818455 0.1999998 -2.129137
v -1.62362 -2.384186E-07 -1.901015
v -1.62362 0.1999998 -1.901015
v -1.645799 -2.384186E-07 -2.265248
v -1.645799 0.1999998 -2.265248
v -1.469463 -2.384186E-07 -2.022543
v -1.469463 0.1999998 -2.022543
v -1.462996 -2.384186E-07 -2.387393
v -1.462996 0.1999998 -2.387393
v -1.306247 -2.384186E-07 -2.131601
v -1.306247 0.1999998 -2.131601
v -1.271173 -2.384186E-07 -2.494818
v -1.271173 0.1999998 -2.494818
v -1.134976 -2.384186E-07 -2.227517
v -1.134976 0.1999998 -2.227517
v -1.071514 -2.384186E-07 -2.586863
v -1.071514 0.1999998 -2.586863
v -0.9567086 -2.384186E-07 -2.309699
v -0.9567086 0.1999998 -2.309699
v -0.8652475 -2.384186E-07 -2.662959
v -0.8652475 0.1999998 -2.662959
v -0.7725425 -2.384186E-07 -2.377642
v -0.7725425 0.1999998 -2.377642
v -0.6536472 -2.384186E-07 -2.722636
v -0.6536472 0.1999998 -2.722636
v -0.5836136 -2.384186E-07 -2.430925
v -0.5836136 0.1999998 -2.430925
v -0.4380167 -2.384186E-07 -2.765528
v -0.4380167 0.1999998 -2.765528
v -0.3910863 -2.384186E-07 -2.469221
v -0.3910863 0.1999998 -2.469221
v -0.2196853 -2.384186E-07 -2.791369
v -0.2196853 0.1999998 -2.791369
v -0.1961477 -2.384186E-07 -2.492294
v -0.1961477 0.1999998 -2.492294
v 2.384186E-07 -2.384186E-07 -2.8
v 2.384186E-07 0.1999998 -2.8
v 0 -2.384186E-07 -2.5
v 0 0.1999998 -2.5

vt 0 0
vt 0 0.219855
vt 0.2 0
vt 0.2 0.219855
vt 0 0.208077
vt 0 0.01177791
vt -0.2 0.208077
vt -0.2 0.01177791
vt 0 0.2
vt 0.3 0.2
vt 0.3 0
vt 0 0.2191773
vt 0 0.4390322
vt 0.2 0.2191773
vt 0.2 0.4390322
vt 0 0.4272543
vt 0 0.2309552
vt -0.2 0.4272543
vt -0.2 0.2309552
vt 0 0.4363254
vt 0 0.6561803
vt 0.2 0.4363254
vt 0.2 0.6561803
vt 0 0.6444023
vt 0 0.4481033
vt -0.2 0.6444023
vt -0.2 0.4481033
vt 0 0.6501058
vt 0 0.8699608
vt 0.2 0.6501058
vt 0.2 0.8699608
vt 0 0.8581827
vt 0 0.6618837
vt -0.2 0.8581827
vt -0.2 0.6618837
vt 0 0.8592
vt 0 1.079055
vt 0.2 0.8592
vt 0.2 1.079055
vt 0 1.067277
vt 0 0.8709782
vt -0.2 1.067277
vt -0.2 0.8709782
vt 0 1.06232
vt 0 1.282175
vt 0.2 1.06232
vt 0.2 1.282175
vt 0 1.270397
vt 0 1.074098
vt -0.2 1.270397
vt -0.2 1.074098
vt 0 1.258212
vt 0 1.478067
vt 0.2 1.258212
vt 0.2 1.478067
vt 0 1.466289
vt 0 1.26999
vt -0.2 1.466289
vt -0.2 1.26999
vt 0 1.44567
vt 0 1.665524
vt 0.2 1.44567
vt 0.2 1.665524
vt 0 1.653746
vt 0 1.457447
vt -0.2 1.653746
vt -0.2 1.457447
vt 0 1.623535
vt 0 1.84339
vt 0.2 1.623535
vt 0.2 1.84339
vt 0 1.831612
vt 0 1.635313
vt -0.2 1.831612
vt -0.2 1.635313
vt 0 1.790715
vt 0 2.01057
vt 0.2 1.790715
vt 0.2 2.01057
vt 0 1.998792
vt 0 1.802492
vt -0.2 1.998792
vt -0.2 1.802492
vt -1.946175 0
vt -2.16603 0
vt -1.946175 0.2
vt -2.16603 0.2
vt 2.154253 0
vt 1.957953 0
vt 2.154253 0.2
vt 1.957953 0.2
vt -2.088961 0
vt -2.308816 0
vt -2.088961 0.2
vt -2.308816 0.2
vt 2.297037 0
vt 2.100738 0
vt 2.297037 0.2
vt 2.100738 0.2
vt -2.218187 0
vt -2.438041 0
vt -2.218187 0.2
vt -2.438041 0.2
vt 2.426264 0
vt 2.229965 0
vt 2.426264 0.2
vt 2.229965 0.2
vt -2.333061 0
vt -2.552917 0
vt -2.333061 0.2
vt -2.552917 0.2
vt 2.541139 0
vt 2.34484 0
vt 2.541139 0.2
vt 2.34484 0.2
vt -2.432872 0
vt -2.652727 0
vt -2.432872 0.2
vt -2.652727 0.2
vt 2.64095 0
vt 2.444651 0
vt 2.64095 0.2
vt 2.444651 0.2
vt -2.51701 0
vt -2.736865 0
vt -2.51701 0.2
vt -2.736865 0.2
vt 2.725086 0
vt 2.528787 0
vt 2.725086 0.2
vt 2.528787 0.2
vt -2.584946 0
vt -2.804801 0
vt -2.584946 0.2
vt -2.804801 0.2
vt 2.793024 0
vt 2.596725 0
vt 2.793024 0.2
vt 2.596725 0.2
vt -2.636273 0
vt -2.856128 0
vt -2.636273 0.2
vt -2.856128 0.2
vt 2.844347 0
vt 2.648048 0
vt 2.844347 0.2
vt 2.648048 0.2
vt -2.670661 0
vt -2.890517 0
vt -2.670661 0.2
vt -2.890517 0.2
vt 2.878741 0
vt 2.682441 0
vt 2.878741 0.2
vt 2.682441 0.2
vt -2.687914 0
vt -2.907769 0
vt -2.687914 0.2
vt -2.907769 0.2
vt 2.89599 0
vt 2.699692 0
vt 2.89599 0.2
vt 2.699692 0.2
vt -0.2 2.500002
vt -0.2 2.800002
vt 0 2.500002
vt 0 2.800002
vt 0.008631468 0.2196855
vt 0.3077066 0.1961477
vt -0.008631468 0.2196855
vt -0.3077066 0.1961477
vt -0.3 0
vt 0.03447247 0.4380165
vt 0.3307791 0.3910862
vt -0.03447247 0.4380165
vt -0.3307791 0.3910862
vt 0.07736421 0.653647
vt 0.3690751 0.5836134
vt -0.07736421 0.653647
vt -0.3690751 0.5836134
vt 0.1370416 0.8652476
vt 0.4223585 0.7725425
vt -0.1370416 0.8652476
vt -0.4223585 0.7725425
vt 0.2131374 1.071514
vt 0.4903011 0.9567087
vt -0.2131374 1.071514
vt -0.4903011 0.9567087
vt 0.3051817 1.271173
vt 0.5724835 1.134976
vt -0.3051817 1.271173
vt -0.5724835 1.134976
vt 0.4126077 1.462996
vt 0.6683996 1.306246
vt -0.4126077 1.462996
vt -0.6683996 1.306246
vt 0.5347524 1.645799
vt 0.7774575 1.469463
vt -0.5347524 1.645799
vt -0.7774575 1.469463
vt 0.6708634 1.818455
vt 0.898985 1.62362
vt -0.6708634 1.818455
vt -0.898985 1.62362
vt 0.820101 1.979899
vt 1.032233 1.767767
vt -0.820101 1.979899
vt -1.032233 1.767767
vt 0.9815454 2.129137
vt 1.17638 1.901015
vt -0.9815454 2.129137
vt -1.17638 1.901015
vt 1.154201 2.265248
vt 1.330537 2.022542
vt -1.154201 2.265248
vt -1.330537 2.022542
vt 1.337004 2.387392
vt 1.493753 2.1316
vt -1.337004 2.387392
vt -1.493753 2.1316
vt 1.528826 2.494818
vt 1.665024 2.227516
vt -1.528826 2.494818
vt -1.665024 2.227516
vt 1.728486 2.586863
vt 1.843291 2.309699
vt -1.728486 2.586863
vt -1.843291 2.309699
vt 1.934752 2.662958
vt 2.027457 2.377641
vt -1.934752 2.662958
vt -2.027457 2.377641
vt 2.146353 2.722636
vt 2.216386 2.430925
vt -2.146353 2.722636
vt -2.216386 2.430925
vt 2.361983 2.765527
vt 2.408914 2.469221
vt -2.361983 2.765527
vt -2.408914 2.469221
vt 2.580315 2.791368
vt 2.603852 2.492293
vt -2.580315 2.791368
vt -2.603852 2.492293
vt 2.8 2.8
vt 2.8 2.5
vt -2.8 2.8
vt -2.8 2.5

vn -0.999229 -5.850168E-09 -0.03925982
vn 0.999229 2.925074E-09 0.03925969
vn 0 1.490116E-07 1
vn -0.9930686 -1.751431E-08 -0.1175366
vn 0.9930685 1.751443E-08 0.1175374
vn -0.9807851 -5.814166E-08 -0.1950911
vn 0.9807854 5.814135E-08 0.19509
vn -0.9624555 -8.089529E-08 -0.2714396
vn 0.9624553 8.089544E-08 0.2714401
vn -0.9381909 -1.031512E-07 -0.3461181
vn 0.9381912 1.031511E-07 0.3461176
vn -0.9081432 0 -0.4186597
vn 0.9081433 0 0.4186594
vn -0.8724957 0 -0.4886218
vn 0.8724957 0 0.4886218
vn -0.8314703 0 -0.5555692
vn 0.8314697 0 0.5555702
vn -0.7853166 0 -0.6190944
vn 0.7853171 0 0.6190938
vn -0.7343227 0 -0.6788006
vn 0.7343227 0 0.6788006
vn -0.6788006 0 -0.7343227
vn 0.6788006 -4.376903E-07 0.7343227
vn -0.6190946 0 -0.7853164
vn 0.6190944 0 0.7853166
vn -0.5555698 0 -0.8314699
vn 0.5555702 0 0.8314697
vn -0.4886216 0 -0.8724959
vn 0.4886216 0 0.8724958
vn -0.4186592 0 -0.9081435
vn 0.4186592 0 0.9081435
vn -0.3461181 0 -0.9381909
vn 0.3461178 0 0.9381911
vn -0.27144 0 -0.9624553
vn 0.2714405 0 0.9624552
vn -0.195091 0 -0.9807852
vn 0.19509 0 0.9807854
vn -0.1175364 0 -0.9930686
vn 0.1175373 0 0.9930685
vn -0.03925981 0 -0.999229
vn 0.03925971 0 0.999229
vn 1 0 7.947287E-07
vn 0 1 -1.35659E-07
vn -1.064369E-08 -1 1.352408E-07

usemtl Obstacle
f 3/3/1 4/4/1 2/2/1 1/1/1
f 7/7/2 8/8/2 6/6/2 5/5/2
f 1/1/3 6/11/3 8/10/3 3/9/3
f 4/14/4 10/15/4 9/13/4 2/12/4
f 12/18/5 7/19/5 5/17/5 11/16/5
f 10/22/6 14/23/6 13/21/6 9/20/6
f 16/26/7 12/27/7 11/25/7 15/24/7
f 14/30/8 18/31/8 17/29/8 13/28/8
f 20/34/9 16/35/9 15/33/9 19/32/9
f 18/38/10 22/39/10 21/37/10 17/36/10
f 24/42/11 20/43/11 19/41/11 23/40/11
f 22/46/12 26/47/12 25/45/12 21/44/12
f 28/50/13 24/51/13 23/49/13 27/48/13
f 26/54/14 30/55/14 29/53/14 25/52/14
f 32/58/15 28/59/15 27/57/15 31/56/15
f 30/62/16 34/63/16 33/61/16 29/60/16
f 36/66/17 32/67/17 31/65/17 35/64/17
f 34/70/18 38/71/18 37/69/18 33/68/18
f 40/74/19 36/75/19 35/73/19 39/72/19
f 38/78/20 42/79/20 41/77/20 37/76/20
f 44/82/21 40/83/21 39/81/21 43/80/21
f 42/86/22 46/87/22 45/85/22 41/84/22
f 48/90/23 44/91/23 43/89/23 47/88/23
f 46/94/24 50/95/24 49/93/24 45/92/24
f 52/98/25 48/99/25 47/97/25 51/96/25
f 50/102/26 54/103/26 53/101/26 49/100/26
f 56/106/27 52/107/27 51/105/27 55/104/27
f 54/110/28 58/111/28 57/109/28 53/108/28
f 60/114/29 56/115/29 55/113/29 59/112/29
f 58/118/30 62/119/30 61/117/30 57/116/30
f 64/122/31 60/123/31 59/121/31 63/120/31
f 62/126/32 66/127/32 65/125/32 61/124/32
f 68/130/33 64/131/33 63/129/33 67/128/33
f 66/134/34 70/135/34 69/133/34 65/132/34
f 72/138/35 68/139/35 67/137/35 71/136/35
f 70/142/36 74/143/36 73/141/36 69/140/36
f 76/146/37 72/147/37 71/145/37 75/144/37
f 74/150/38 78/151/38 77/149/38 73/148/38
f 80/154/39 76/155/39 75/153/39 79/152/39
f 78/158/40 82/159/40 81/157/40 77/156/40
f 84/162/41 80/163/41 79/161/41 83/160/41
f 83/166/42 81/167/42 82/165/42 84/164/42
f 8/11/43 7/169/43 4/168/43 3/1/43
f 5/171/44 6/172/44 1/1/44 2/170/44
f 7/169/43 12/174/43 10/173/43 4/168/43
f 11/176/44 5/171/44 2/170/44 9/175/44
f 12/174/43 16/178/43 14/177/43 10/173/43
f 15/180/44 11/176/44 9/175/44 13/179/44
f 16/178/43 20/182/43 18/181/43 14/177/43
f 19/184/44 15/180/44 13/179/44 17/183/44
f 20/182/43 24/186/43 22/185/43 18/181/43
f 23/188/44 19/184/44 17/183/44 21/187/44
f 24/186/43 28/190/43 26/189/43 22/185/43
f 27/192/44 23/188/44 21/187/44 25/191/44
f 28/190/43 32/194/43 30/193/43 26/189/43
f 31/196/44 27/192/44 25/191/44 29/195/44
f 32/194/43 36/198/43 34/197/43 30/193/43
f 35/200/44 31/196/44 29/195/44 33/199/44
f 36/198/43 40/202/43 38/201/43 34/197/43
f 39/204/44 35/200/44 33/199/44 37/203/44
f 40/202/43 44/206/43 42/205/43 38/201/43
f 43/208/44 39/204/44 37/203/44 41/207/44
f 44/206/43 48/210/43 46/209/43 42/205/43
f 47/212/44 43/208/44 41/207/44 45/211/44
f 48/210/43 52/214/43 50/213/43 46/209/43
f 51/216/44 47/212/44 45/211/44 49/215/44
f 52/214/43 56/218/43 54/217/43 50/213/43
f 55/220/44 51/216/44 49/215/44 53/219/44
f 56/218/43 60/222/43 58/221/43 54/217/43
f 59/224/44 55/220/44 53/219/44 57/223/44
f 60/222/43 64/226/43 62/225/43 58/221/43
f 63/228/44 59/224/44 57/223/44 61/227/44
f 64/226/43 68/230/43 66/229/43 62/225/43
f 67/232/44 63/228/44 61/227/44 65/231/44
f 68/230/43 72/234/43 70/233/43 66/229/43
f 71/236/44 67/232/44 65/231/44 69/235/44
f 72/234/43 76/238/43 74/237/43 70/233/43
f 75/240/44 71/236/44 69/235/44 73/239/44
f 76/238/43 80/242/43 78/241/43 74/237/43
f 79/244/44 75/240/44 73/239/44 77/243/44
f 80/242/43 84/246/43 82/245/43 78/241/43
f 83/248/44 79/244/44 77/243/44 81/247/44

