# ProBuilder 4.2.3
# https://unity3d.com/unity/features/worldbuilding/probuilder
# 17.02.2021 11:16:04

mtllib ./33Arch35.mtl
o 33Arch35

g 33Arch35
v -3.3 0 0
v -3.293845 -2.980232E-08 -0.2014602
v -3.3 0.2 -2.980232E-08
v -3.293845 0.2 -0.2014602
v -2.994404 -1.490116E-08 -0.1831456
v -3 0 0
v -2.994404 0.2 -0.1831457
v -3 0.2 -2.980232E-08
v -3.275402 -5.960464E-08 -0.4021689
v -3.275402 0.2 -0.4021689
v -2.977638 -2.980232E-08 -0.3656081
v -2.977638 0.2 -0.3656081
v -3.244741 -5.960464E-08 -0.6013773
v -3.244741 0.2 -0.6013774
v -2.949765 -5.960464E-08 -0.5467066
v -2.949765 0.2 -0.5467067
v -3.201976 -1.192093E-07 -0.7983424
v -3.201976 0.1999999 -0.7983425
v -2.910887 -5.960464E-08 -0.7257658
v -2.910887 0.2 -0.7257658
v -3.147266 -1.192093E-07 -0.9923292
v -3.147266 0.1999999 -0.9923293
v -2.861151 -1.192093E-07 -0.9021175
v -2.861151 0.1999999 -0.9021176
v -3.080815 -1.192093E-07 -1.182614
v -3.080815 0.1999999 -1.182614
v -2.800741 -1.192093E-07 -1.075104
v -2.800741 0.1999999 -1.075104
v -3.002872 -1.192093E-07 -1.368488
v -3.002872 0.1999999 -1.368488
v -2.729884 -1.192093E-07 -1.24408
v -2.729884 0.1999999 -1.24408
v -2.913727 -2.384186E-07 -1.549256
v -2.913727 0.1999998 -1.549256
v -2.648843 -1.192093E-07 -1.408415
v -2.648843 0.1999999 -1.408415
v -2.813712 -2.384186E-07 -1.724245
v -2.813712 0.1999998 -1.724245
v -2.55792 -2.384186E-07 -1.567496
v -2.55792 0.1999998 -1.567496
v -2.703202 -2.384186E-07 -1.892802
v -2.703202 0.1999998 -1.892802
v -2.457456 -2.384186E-07 -1.72073
v -2.457456 0.1999998 -1.72073

vt 0 0
vt 0 0.2015542
vt 0.2 0
vt 0.2 0.2015542
vt 0 0.1923928
vt 0 0.009161681
vt -0.2 0.1923928
vt -0.2 0.009161681
vt 0 0.2
vt 0.3 0.2
vt 0.3 0
vt 0 0.2011783
vt 0 0.4027325
vt 0.2 0.2011783
vt 0.2 0.4027325
vt 0 0.3935707
vt 0 0.2103397
vt -0.2 0.3935707
vt -0.2 0.2103397
vt 0 0.4012301
vt 0 0.6027843
vt 0.2 0.4012301
vt 0.2 0.6027843
vt 0 0.5936227
vt 0 0.4103917
vt -0.2 0.5936227
vt -0.2 0.4103917
vt 0 0.5994092
vt 0 0.8009634
vt 0.2 0.5994092
vt 0.2 0.8009634
vt 0 0.7918018
vt 0 0.6085706
vt -0.2 0.7918018
vt -0.2 0.6085706
vt 0 0.7949764
vt 0 0.9965306
vt 0.2 0.7949764
vt 0.2 0.9965306
vt 0 0.9873692
vt 0 0.8041381
vt -0.2 0.9873692
vt -0.2 0.8041381
vt 0 1.188756
vt 0.2 0.987202
vt 0.2 1.188756
vt 0 1.179595
vt 0 0.9963636
vt -0.2 1.179595
vt -0.2 0.9963636
vt 0 1.175369
vt 0 1.376923
vt 0.2 1.175369
vt 0.2 1.376923
vt 0 1.367762
vt 0 1.184531
vt -0.2 1.367762
vt -0.2 1.184531
vt 0 1.358775
vt 0 1.56033
vt 0.2 1.358775
vt 0.2 1.56033
vt 0 1.551168
vt -0.2 1.551168
vt 0 1.536738
vt 0 1.738292
vt 0.2 1.536738
vt 0.2 1.738292
vt 0 1.72913
vt 0 1.545899
vt -0.2 1.72913
vt -0.2 1.545899
vt 0 1.708591
vt 0 1.910145
vt 0.2 1.708591
vt 0.2 1.910145
vt 0 1.900983
vt 0 1.717752
vt -0.2 1.900983
vt -0.2 1.717752
vt 0.2967979 0.2
vt 0.5967979 0.2
vt 0.2967979 0
vt 0.5967979 0
vt 0.006155252 0.2014602
vt 0.3055956 0.1831456
vt -0.006155252 0.2014602
vt -0.3055956 0.1831456
vt -0.3 0
vt 0.02459764 0.4021688
vt 0.3223615 0.365608
vt -0.02459764 0.4021688
vt -0.3223615 0.365608
vt 0.05525875 0.6013772
vt 0.3502352 0.5467066
vt -0.05525875 0.6013772
vt -0.3502352 0.5467066
vt 0.09802413 0.7983423
vt 0.3891127 0.7257657
vt -0.09802413 0.7983423
vt -0.3891127 0.7257657
vt 0.152734 0.9923291
vt 0.4388492 0.9021174
vt -0.152734 0.9923291
vt -0.4388492 0.9021174
vt 0.2191846 1.182614
vt 0.4992588 1.075104
vt -0.2191846 1.182614
vt -0.4992588 1.075104
vt 0.2971277 1.368488
vt 0.570116 1.24408
vt -0.2971277 1.368488
vt -0.570116 1.24408
vt 0.3862731 1.549256
vt 0.6511571 1.408415
vt -0.3862731 1.549256
vt -0.6511571 1.408415
vt 0.4862876 1.724245
vt 0.7420795 1.567496
vt -0.4862876 1.724245
vt -0.7420795 1.567496
vt 0.5967982 1.892802
vt 0.8425438 1.720729
vt -0.5967982 1.892802
vt -0.8425438 1.720729

vn -0.9995336 -4.550656E-09 -0.03053894
vn 0.9995336 6.825985E-09 0.03053894
vn 0 1.490116E-07 1
vn -0.995805 -6.817348E-09 -0.0915009
vn 0.995805 1.363471E-08 0.09150103
vn -0.9883615 -2.266815E-08 -0.1521234
vn 0.9883615 4.533632E-08 0.1521235
vn -0.977231 -6.323395E-08 -0.212178
vn 0.9772312 6.323376E-08 0.2121774
vn -0.9624553 -8.08955E-08 -0.2714403
vn 0.962455 8.089579E-08 0.2714413
vn -0.9440889 -9.825554E-08 -0.329691
vn 0.9440891 0 0.3296904
vn -0.9222012 0 -0.3867103
vn 0.9222013 0 0.3867102
vn -0.8968723 0 -0.4422895
vn 0.8968727 0 0.4422889
vn -0.8681988 0 -0.4962165
vn 0.8681986 0 0.4962169
vn -0.8362867 0 -0.5482923
vn 0.8362865 0 0.5482928
vn 0.5735763 0 -0.8191522
vn 0 1 -1.479316E-07
vn 4.063953E-08 -1 1.491732E-07

usemtl Obstacle
f 3/3/1 4/4/1 2/2/1 1/1/1
f 7/7/2 8/8/2 6/6/2 5/5/2
f 1/1/3 6/11/3 8/10/3 3/9/3
f 4/14/4 10/15/4 9/13/4 2/12/4
f 12/18/5 7/19/5 5/17/5 11/16/5
f 10/22/6 14/23/6 13/21/6 9/20/6
f 16/26/7 12/27/7 11/25/7 15/24/7
f 14/30/8 18/31/8 17/29/8 13/28/8
f 20/34/9 16/35/9 15/33/9 19/32/9
f 18/38/10 22/39/10 21/37/10 17/36/10
f 24/42/11 20/43/11 19/41/11 23/40/11
f 22/45/12 26/46/12 25/44/12 21/40/12
f 28/49/13 24/50/13 23/48/13 27/47/13
f 26/53/14 30/54/14 29/52/14 25/51/14
f 32/57/15 28/58/15 27/56/15 31/55/15
f 30/61/16 34/62/16 33/60/16 29/59/16
f 36/64/17 32/57/17 31/55/17 35/63/17
f 34/67/18 38/68/18 37/66/18 33/65/18
f 40/71/19 36/72/19 35/70/19 39/69/19
f 38/75/20 42/76/20 41/74/20 37/73/20
f 44/79/21 40/80/21 39/78/21 43/77/21
f 43/83/22 41/84/22 42/82/22 44/81/22
f 8/11/23 7/86/23 4/85/23 3/1/23
f 5/88/24 6/89/24 1/1/24 2/87/24
f 7/86/23 12/91/23 10/90/23 4/85/23
f 11/93/24 5/88/24 2/87/24 9/92/24
f 12/91/23 16/95/23 14/94/23 10/90/23
f 15/97/24 11/93/24 9/92/24 13/96/24
f 16/95/23 20/99/23 18/98/23 14/94/23
f 19/101/24 15/97/24 13/96/24 17/100/24
f 20/99/23 24/103/23 22/102/23 18/98/23
f 23/105/24 19/101/24 17/100/24 21/104/24
f 24/103/23 28/107/23 26/106/23 22/102/23
f 27/109/24 23/105/24 21/104/24 25/108/24
f 28/107/23 32/111/23 30/110/23 26/106/23
f 31/113/24 27/109/24 25/108/24 29/112/24
f 32/111/23 36/115/23 34/114/23 30/110/23
f 35/117/24 31/113/24 29/112/24 33/116/24
f 36/115/23 40/119/23 38/118/23 34/114/23
f 39/121/24 35/117/24 33/116/24 37/120/24
f 40/119/23 44/123/23 42/122/23 38/118/23
f 43/125/24 39/121/24 37/120/24 41/124/24

