# ProBuilder 4.2.3
# https://unity3d.com/unity/features/worldbuilding/probuilder
# 17.02.2021 11:16:04

mtllib ./33Arch90.mtl
o 33Arch90

g 33Arch90
v -3.3 -0.09999978 2.384186E-07
v -3.289827 -0.09999981 -0.2589148
v -3.3 0.1000003 2.384186E-07
v -3.289827 0.1000002 -0.2589148
v -2.990752 -0.09999981 -0.2353771
v -3 -0.09999978 2.384186E-07
v -2.990752 0.1000002 -0.2353771
v -3 0.1000003 2.384186E-07
v -3.259372 -0.09999984 -0.5162336
v -3.259372 0.1000002 -0.5162336
v -2.963065 -0.09999984 -0.4693033
v -2.963065 0.1000002 -0.4693033
v -3.208821 -0.0999999 -0.7703696
v -3.208821 0.1000002 -0.7703696
v -2.91711 -0.09999984 -0.7003359
v -2.91711 0.1000002 -0.700336
v -3.138487 -0.0999999 -1.019756
v -3.138487 0.1000002 -1.019756
v -2.85317 -0.0999999 -0.9270509
v -2.85317 0.1000002 -0.9270509
v -3.048802 -0.0999999 -1.262855
v -3.048802 0.1000002 -1.262855
v -2.771638 -0.0999999 -1.14805
v -2.771638 0.1000002 -1.14805
v -2.940321 -0.0999999 -1.498168
v -2.940321 0.1000002 -1.498168
v -2.67302 -0.0999999 -1.361971
v -2.67302 0.1000002 -1.361971
v -2.813713 -0.1 -1.724245
v -2.813713 0.1 -1.724245
v -2.55792 -0.1 -1.567496
v -2.55792 0.1 -1.567496
v -2.669756 -0.1 -1.939691
v -2.669756 0.1 -1.939691
v -2.427051 -0.1 -1.763356
v -2.427051 0.1 -1.763356
v -2.50934 -0.1 -2.143178
v -2.50934 0.1 -2.143178
v -2.281218 -0.1 -1.948344
v -2.281218 0.1 -1.948344
v -2.333452 -0.1 -2.333452
v -2.333452 0.1 -2.333452
v -2.12132 -0.1 -2.12132
v -2.12132 0.1 -2.12132
v -2.143178 -0.1 -2.50934
v -2.143178 0.1 -2.50934
v -1.948344 -0.1 -2.281218
v -1.948344 0.1 -2.281218
v -1.939692 -0.1 -2.669756
v -1.939692 0.1 -2.669756
v -1.763356 -0.1 -2.427051
v -1.763356 0.1 -2.427051
v -1.724246 -0.1 -2.813712
v -1.724246 0.1 -2.813712
v -1.567496 -0.1 -2.55792
v -1.567496 0.1 -2.55792
v -1.498169 -0.1 -2.940321
v -1.498169 0.1 -2.940321
v -1.361972 -0.1 -2.67302
v -1.361972 0.1 -2.67302
v -1.262855 -0.1000003 -3.048803
v -1.262855 0.09999979 -3.048803
v -1.14805 -0.1 -2.771638
v -1.14805 0.1 -2.771638
v -1.019756 -0.1000003 -3.138487
v -1.019756 0.09999979 -3.138487
v -0.9270509 -0.1 -2.85317
v -0.9270509 0.1 -2.85317
v -0.7703699 -0.1000003 -3.208821
v -0.7703699 0.09999979 -3.208821
v -0.7003363 -0.1 -2.91711
v -0.7003363 0.1 -2.91711
v -0.5162338 -0.1000003 -3.259372
v -0.5162338 0.09999979 -3.259372
v -0.4693035 -0.1 -2.963065
v -0.4693035 0.1 -2.963065
v -0.2589151 -0.1000003 -3.289827
v -0.2589151 0.09999979 -3.289827
v -0.2353774 -0.1 -2.990752
v -0.2353774 0.1 -2.990752
v 1.192093E-07 -0.1000003 -3.3
v 1.192093E-07 0.09999979 -3.3
v 1.192093E-07 -0.1000003 -3
v 1.192093E-07 0.09999979 -3

vt 0 0
vt 0 0.2591148
vt 0.2 0
vt 0.2 0.2591148
vt 0 0.2473369
vt 0 0.01177797
vt -0.2 0.2473369
vt -0.2 0.01177797
vt 0 0.2
vt 0.3 0.2
vt 0.3 0
vt 0 0.2583161
vt 0 0.5174308
vt 0.2 0.2583161
vt 0.2 0.5174308
vt 0 0.5056527
vt 0 0.2700938
vt -0.2 0.5056527
vt -0.2 0.2700938
vt 0 0.5142406
vt 0 0.7733555
vt 0.2 0.5142406
vt 0.2 0.7733555
vt 0 0.7615777
vt 0 0.5260188
vt -0.2 0.7615777
vt -0.2 0.5260188
vt 0 0.7661963
vt 0 1.025311
vt 0.2 0.7661963
vt 0.2 1.025311
vt 0 1.013533
vt 0 0.7779739
vt -0.2 1.013533
vt -0.2 0.7779739
vt 0 1.012629
vt 0 1.271744
vt 0.2 1.012629
vt 0.2 1.271744
vt 0 1.259966
vt 0 1.024407
vt -0.2 1.259966
vt -0.2 1.024407
vt 0 1.25202
vt 0 1.511135
vt 0.2 1.25202
vt 0.2 1.511135
vt 0 1.499357
vt 0 1.263798
vt -0.2 1.499357
vt -0.2 1.263798
vt 0 1.482892
vt 0 1.742007
vt 0.2 1.482892
vt 0.2 1.742007
vt 0 1.730229
vt 0 1.494671
vt -0.2 1.730229
vt -0.2 1.494671
vt 0 1.703825
vt 0 1.96294
vt 0.2 1.703825
vt 0.2 1.96294
vt 0 1.951161
vt 0 1.715602
vt -0.2 1.951161
vt -0.2 1.715602
vt 0 1.913452
vt 0 2.172567
vt 0.2 1.913452
vt 0.2 2.172567
vt 0 2.160789
vt 0 1.92523
vt -0.2 2.160789
vt -0.2 1.92523
vt 0 2.110485
vt 0 2.3696
vt 0.2 2.110485
vt 0.2 2.3696
vt 0 2.357822
vt 0 2.122263
vt -0.2 2.357822
vt -0.2 2.122263
vt -2.293707 0
vt -2.552822 0
vt -2.293707 0.2
vt -2.552822 0.2
vt 2.541044 0
vt 2.305485 0
vt 2.541044 0.2
vt 2.305485 0.2
vt -2.46199 0
vt -2.721105 0
vt -2.46199 0.2
vt -2.721105 0.2
vt 2.709326 0
vt 2.473768 0
vt 2.709326 0.2
vt 2.473768 0.2
vt -2.614291 0
vt -2.873406 0
vt -2.614291 0.2
vt -2.873406 0.2
vt 2.861628 0
vt 2.62607 0
vt 2.861628 0.2
vt 2.62607 0.2
vt -2.749679 0
vt -3.008794 0
vt -2.749679 0.2
vt -3.008794 0.2
vt 2.997017 0
vt 2.761458 0
vt 2.997017 0.2
vt 2.761458 0.2
vt -2.867315 0
vt -3.12643 0
vt -2.867315 0.2
vt -3.12643 0.2
vt 3.11465 0
vt 2.879091 0
vt 3.11465 0.2
vt 2.879091 0.2
vt -2.966475 0
vt -3.22559 0
vt -2.966475 0.2
vt -3.22559 0.2
vt 3.213813 0
vt 2.978254 0
vt 3.213813 0.2
vt 2.978254 0.2
vt -3.046543 0
vt -3.305657 0
vt -3.046543 0.2
vt -3.305657 0.2
vt 3.293881 0
vt 3.058322 0
vt 3.293881 0.2
vt 3.058322 0.2
vt -3.107035 0
vt -3.36615 0
vt -3.107035 0.2
vt -3.36615 0.2
vt 3.354372 0
vt 3.118813 0
vt 3.354372 0.2
vt 3.118813 0.2
vt -3.147568 0
vt -3.406682 0
vt -3.147568 0.2
vt -3.406682 0.2
vt 3.394904 0
vt 3.159345 0
vt 3.394904 0.2
vt 3.159345 0.2
vt -3.167899 0
vt -3.427014 0
vt -3.167899 0.2
vt -3.427014 0.2
vt 3.415236 0
vt 3.179676 0
vt 3.415236 0.2
vt 3.179676 0.2
vt -0.2 3
vt -0.2 3.3
vt 0 3
vt 0 3.3
vt 0.01017284 0.258915
vt 0.309248 0.2353773
vt -0.01017284 0.258915
vt -0.309248 0.2353773
vt -0.3 0
vt 0.04062843 0.5162337
vt 0.3369348 0.4693034
vt -0.04062843 0.5162337
vt -0.3369348 0.4693034
vt 0.09117937 0.7703697
vt 0.3828902 0.7003361
vt -0.09117937 0.7703697
vt -0.3828902 0.7003361
vt 0.1615133 1.019756
vt 0.4468303 0.927051
vt -0.1615133 1.019756
vt -0.4468303 0.927051
vt 0.2511976 1.262855
vt 0.5283616 1.14805
vt -0.2511976 1.262855
vt -0.5283616 1.14805
vt 0.3596785 1.498169
vt 0.6269803 1.361971
vt -0.3596785 1.498169
vt -0.6269803 1.361971
vt 0.4862876 1.724245
vt 0.7420795 1.567496
vt -0.4862876 1.724245
vt -0.7420795 1.567496
vt 0.6302438 1.939691
vt 0.8729489 1.763356
vt -0.6302438 1.939691
vt -0.8729489 1.763356
vt 0.7906604 2.143178
vt 1.018782 1.948344
vt -0.7906604 2.143178
vt -1.018782 1.948344
vt 0.9665477 2.333452
vt 1.17868 2.12132
vt -0.9665477 2.333452
vt -1.17868 2.12132
vt 1.156821 2.50934
vt 1.351656 2.281218
vt -1.156821 2.50934
vt -1.351656 2.281218
vt 1.360309 2.669756
vt 1.536644 2.427051
vt -1.360309 2.669756
vt -1.536644 2.427051
vt 1.575755 2.813712
vt 1.732504 2.55792
vt -1.575755 2.813712
vt -1.732504 2.55792
vt 1.801831 2.940321
vt 1.938028 2.67302
vt -1.801831 2.940321
vt -1.938028 2.67302
vt 2.037145 3.048802
vt 2.15195 2.771638
vt -2.037145 3.048802
vt -2.15195 2.771638
vt 2.280244 3.138487
vt 2.372949 2.85317
vt -2.280244 3.138487
vt -2.372949 2.85317
vt 2.52963 3.208821
vt 2.599664 2.91711
vt -2.52963 3.208821
vt -2.599664 2.91711
vt 2.783766 3.259372
vt 2.830697 2.963065
vt -2.783766 3.259372
vt -2.830697 2.963065
vt 3.041085 3.289827
vt 3.064623 2.990752
vt -3.041085 3.289827
vt -3.064623 2.990752
vt 3.3 3.3
vt 3.3 3
vt -3.3 3.3
vt -3.3 3

vn -0.999229 0 -0.03925999
vn 0.9992291 0 0.03925889
vn 0 0 1
vn -0.9930685 0 -0.1175371
vn 0.9930684 0 0.1175378
vn -0.9807852 0 -0.1950908
vn 0.9807854 5.814135E-08 0.19509
vn -0.9624555 -8.089525E-08 -0.2714395
vn 0.9624555 0 0.2714397
vn -0.9381908 0 -0.3461185
vn 0.9381906 0 0.3461193
vn -0.9081431 0 -0.41866
vn 0.9081441 0 0.418658
vn -0.8724964 0 -0.4886207
vn 0.8724954 0 0.4886224
vn -0.8314702 0 -0.5555694
vn 0.83147 0 0.5555697
vn -0.7853165 0 -0.6190946
vn 0.7853171 -3.690086E-07 0.6190938
vn -0.7343219 0 -0.6788014
vn 0.7343219 0 0.6788015
vn -0.6788009 0 -0.7343224
vn 0.6788011 0 0.7343221
vn -0.619095 0 -0.7853161
vn 0.6190949 0 0.7853162
vn -0.5555696 0 -0.83147
vn 0.5555697 0 0.83147
vn -0.4886214 0 -0.8724959
vn 0.4886216 0 0.8724958
vn -0.4186604 0 -0.9081429
vn 0.4186586 0 0.9081437
vn -0.3461178 0 -0.9381911
vn 0.3461181 0 0.938191
vn -0.2714395 0 -0.9624555
vn 0.2714401 0 0.9624553
vn -0.1950908 0 -0.9807852
vn 0.1950908 0 0.9807852
vn -0.1175371 0 -0.9930685
vn 0.1175368 0 0.9930685
vn -0.03925996 0 -0.999229
vn 0.03926087 0 0.999229
vn 1 0 0
vn 0 1 -1.151046E-07
vn -9.031018E-09 -1 1.147498E-07

usemtl Obstacle
f 3/3/1 4/4/1 2/2/1 1/1/1
f 7/7/2 8/8/2 6/6/2 5/5/2
f 1/1/3 6/11/3 8/10/3 3/9/3
f 4/14/4 10/15/4 9/13/4 2/12/4
f 12/18/5 7/19/5 5/17/5 11/16/5
f 10/22/6 14/23/6 13/21/6 9/20/6
f 16/26/7 12/27/7 11/25/7 15/24/7
f 14/30/8 18/31/8 17/29/8 13/28/8
f 20/34/9 16/35/9 15/33/9 19/32/9
f 18/38/10 22/39/10 21/37/10 17/36/10
f 24/42/11 20/43/11 19/41/11 23/40/11
f 22/46/12 26/47/12 25/45/12 21/44/12
f 28/50/13 24/51/13 23/49/13 27/48/13
f 26/54/14 30/55/14 29/53/14 25/52/14
f 32/58/15 28/59/15 27/57/15 31/56/15
f 30/62/16 34/63/16 33/61/16 29/60/16
f 36/66/17 32/67/17 31/65/17 35/64/17
f 34/70/18 38/71/18 37/69/18 33/68/18
f 40/74/19 36/75/19 35/73/19 39/72/19
f 38/78/20 42/79/20 41/77/20 37/76/20
f 44/82/21 40/83/21 39/81/21 43/80/21
f 42/86/22 46/87/22 45/85/22 41/84/22
f 48/90/23 44/91/23 43/89/23 47/88/23
f 46/94/24 50/95/24 49/93/24 45/92/24
f 52/98/25 48/99/25 47/97/25 51/96/25
f 50/102/26 54/103/26 53/101/26 49/100/26
f 56/106/27 52/107/27 51/105/27 55/104/27
f 54/110/28 58/111/28 57/109/28 53/108/28
f 60/114/29 56/115/29 55/113/29 59/112/29
f 58/118/30 62/119/30 61/117/30 57/116/30
f 64/122/31 60/123/31 59/121/31 63/120/31
f 62/126/32 66/127/32 65/125/32 61/124/32
f 68/130/33 64/131/33 63/129/33 67/128/33
f 66/134/34 70/135/34 69/133/34 65/132/34
f 72/138/35 68/139/35 67/137/35 71/136/35
f 70/142/36 74/143/36 73/141/36 69/140/36
f 76/146/37 72/147/37 71/145/37 75/144/37
f 74/150/38 78/151/38 77/149/38 73/148/38
f 80/154/39 76/155/39 75/153/39 79/152/39
f 78/158/40 82/159/40 81/157/40 77/156/40
f 84/162/41 80/163/41 79/161/41 83/160/41
f 83/166/42 81/167/42 82/165/42 84/164/42
f 8/11/43 7/169/43 4/168/43 3/1/43
f 5/171/44 6/172/44 1/1/44 2/170/44
f 7/169/43 12/174/43 10/173/43 4/168/43
f 11/176/44 5/171/44 2/170/44 9/175/44
f 12/174/43 16/178/43 14/177/43 10/173/43
f 15/180/44 11/176/44 9/175/44 13/179/44
f 16/178/43 20/182/43 18/181/43 14/177/43
f 19/184/44 15/180/44 13/179/44 17/183/44
f 20/182/43 24/186/43 22/185/43 18/181/43
f 23/188/44 19/184/44 17/183/44 21/187/44
f 24/186/43 28/190/43 26/189/43 22/185/43
f 27/192/44 23/188/44 21/187/44 25/191/44
f 28/190/43 32/194/43 30/193/43 26/189/43
f 31/196/44 27/192/44 25/191/44 29/195/44
f 32/194/43 36/198/43 34/197/43 30/193/43
f 35/200/44 31/196/44 29/195/44 33/199/44
f 36/198/43 40/202/43 38/201/43 34/197/43
f 39/204/44 35/200/44 33/199/44 37/203/44
f 40/202/43 44/206/43 42/205/43 38/201/43
f 43/208/44 39/204/44 37/203/44 41/207/44
f 44/206/43 48/210/43 46/209/43 42/205/43
f 47/212/44 43/208/44 41/207/44 45/211/44
f 48/210/43 52/214/43 50/213/43 46/209/43
f 51/216/44 47/212/44 45/211/44 49/215/44
f 52/214/43 56/218/43 54/217/43 50/213/43
f 55/220/44 51/216/44 49/215/44 53/219/44
f 56/218/43 60/222/43 58/221/43 54/217/43
f 59/224/44 55/220/44 53/219/44 57/223/44
f 60/222/43 64/226/43 62/225/43 58/221/43
f 63/228/44 59/224/44 57/223/44 61/227/44
f 64/226/43 68/230/43 66/229/43 62/225/43
f 67/232/44 63/228/44 61/227/44 65/231/44
f 68/230/43 72/234/43 70/233/43 66/229/43
f 71/236/44 67/232/44 65/231/44 69/235/44
f 72/234/43 76/238/43 74/237/43 70/233/43
f 75/240/44 71/236/44 69/235/44 73/239/44
f 76/238/43 80/242/43 78/241/43 74/237/43
f 79/244/44 75/240/44 73/239/44 77/243/44
f 80/242/43 84/246/43 82/245/43 78/241/43
f 83/248/44 79/244/44 77/243/44 81/247/44

